Coordinates
version=1
nRows=4
nColumns=63
inDegrees=yes

Units are S.I. units (second, meters, Newtons, ...)
If the header above contains a line with 'inDegrees', this indicates whether rotational values are in degrees (yes) or radians (no).

endheader
time	pelvis_tilt	pelvis_list	pelvis_rotation	pelvis_tx	pelvis_ty	pelvis_tz	hip_flexion_r	hip_adduction_r	hip_rotation_r	knee_angle_r	knee_angle_r_beta	ankle_angle_r	subtalar_angle_r	mtp_angle_r	hip_flexion_l	hip_adduction_l	hip_rotation_l	knee_angle_l	knee_angle_l_beta	ankle_angle_l	subtalar_angle_l	mtp_angle_l	L5_S1_Flex_Ext	L5_S1_Lat_Bending	L5_S1_axial_rotation	L4_L5_Flex_Ext	L4_L5_Lat_Bending	L4_L5_axial_rotation	L3_L4_Flex_Ext	L3_L4_Lat_Bending	L3_L4_axial_rotation	L2_L3_Flex_Ext	L2_L3_Lat_Bending	L2_L3_axial_rotation	L1_L2_Flex_Ext	L1_L2_Lat_Bending	L1_L2_axial_rotation	L1_T12_Flex_Ext	L1_T12_Lat_Bending	L1_T12_axial_rotation	Abs_r3	Abs_r2	Abs_r1	Abs_t1	Abs_t2	neck_flexion	neck_bending	neck_rotation	arm_flex_r	arm_add_r	arm_rot_r	elbow_flex_r	pro_sup_r	wrist_flex_r	wrist_dev_r	arm_flex_l	arm_add_l	arm_rot_l	elbow_flex_l	pro_sup_l	wrist_flex_l	wrist_dev_l
      4.75862069	     -3.04803730	     -2.28136092	     99.07684430	      0.05751991	      0.98315810	      0.43951418	     -5.56044774	     -1.62647259	    -12.45493674	     10.17462326	      0.17758068	     28.54931860	     12.87650370	      0.00000000	     -9.39018788	      0.92432636	     -0.82239095	      0.38767453	      0.00676620	     24.53794777	      6.34585725	      0.00000000	     -0.18915905	      0.28455702	      0.13508909	     -0.35128727	      0.37846084	      0.14353216	     -0.31076940	      0.69187194	      0.14353216	     -0.21618987	      0.69187194	      0.11820296	     -0.17565309	      0.58026868	      0.10975989	     -0.10808548	      0.44077882	      0.10131682	     -1.35114416	      3.21896592	      0.75132502	      0.00000000	      0.00000000	     14.78112089	     -2.73938648	      0.64434876	      5.00943740	    -16.20302327	    131.59183806	      4.52398635	      2.83653580	      4.57855593	    -15.18145370	      5.49407336	     -9.46718695	    131.08281029	      4.00436843	      2.04445992	     -5.92882725	    -18.80565902
      4.77586207	     -3.11273664	     -2.26011019	     98.99350602	      0.05844078	      0.98274618	      0.43930051	     -5.52617479	     -1.67094921	    -12.34246349	     10.40469357	      0.18159616	     28.82076563	     12.73007808	      0.00000000	     -9.41220955	      0.93851374	     -1.14506418	      0.37412344	      0.00652969	     24.66892377	      6.52950723	      0.00000000	     -0.18749110	      0.26439272	      0.13142083	     -0.34818973	      0.35164231	      0.13963463	     -0.30802913	      0.64284445	      0.13963463	     -0.21428358	      0.64284445	      0.11499322	     -0.17410424	      0.53914963	      0.10677942	     -0.10713242	      0.40954432	      0.09856562	     -1.33923020	      2.99086329	      0.73092322	      0.00000000	      0.00000000	     15.21163223	     -2.07591187	      0.68103310	      5.23483525	    -15.94569008	    137.50167271	      2.57309229	      2.63039512	      3.39547993	    -15.88012044	      6.24442681	    -10.12580724	    129.48981698	      5.36382302	      2.32544552	     -6.78315272	    -19.15928964
      4.79310345	     -3.20531817	     -2.24749196	     98.86412594	      0.05946207	      0.98225505	      0.43933895	     -5.48312327	     -1.75317353	    -12.24138892	     10.59354489	      0.18489224	     29.07879457	     12.62224013	      0.00000000	     -9.41810271	      0.98880900	     -1.29844954	      0.36841557	      0.00643006	     24.82345411	      6.49073448	      0.00000000	     -0.18830625	      0.23974723	      0.14372884	     -0.34970353	      0.31886381	      0.15271190	     -0.30936833	      0.58292141	      0.15271190	     -0.21521521	      0.58292141	      0.12576274	     -0.17486118	      0.48889255	      0.11677969	     -0.10759819	      0.37136846	      0.10779663	     -1.34505269	      2.71206860	      0.79937671	      0.00000000	      0.00000000	     15.74887668	     -1.09796921	      0.67563635	      5.59556074	    -15.90176071	    138.74008970	      1.66890265	      3.08746718	      2.41734510	    -16.68079933	      7.03859758	    -10.72906144	    129.45012907	      6.21751904	      2.49267677	     -7.24395839	    -19.38357909
      4.81034483	     -3.27865345	     -2.23913980	     98.64887257	      0.06058777	      0.98179496	      0.43937429	     -5.46742023	     -1.76454435	    -11.49925083	     10.64912633	      0.18586232	     29.20248122	     11.86242438	      0.00000000	     -9.42588681	      1.03682757	     -1.82872352	      0.36712419	      0.00640753	     24.99673560	      6.77898743	      0.00000000	     -0.18541731	      0.21856348	      0.12566269	     -0.34433849	      0.29068942	      0.13351661	     -0.30462210	      0.53141524	      0.13351661	     -0.21191345	      0.53141524	      0.10995485	     -0.17217852	      0.44569464	      0.10210094	     -0.10594745	      0.33855482	      0.09424702	     -1.32441733	      2.47243375	      0.69889819	      0.00000000	      0.00000000	     16.06681554	     -0.14231606	      0.94842554	      6.30170095	    -15.90233611	    141.39765524	      1.26239727	      2.42460006	      0.62367075	    -17.45750719	      7.67267145	    -11.44757747	    127.49604671	      7.63846848	      3.33219946	     -9.49045537	    -19.86438225
